<svg preserveAspectRatio="none" overflow="visible" style="display: block;" width="46.9036" height="24.1847" viewBox="0 0 46.9036 24.1847" fill="none" xmlns="http://www.w3.org/2000/svg">
<path id="Vector" d="M1.89654 23.3218C2.08418 20.9131 2.38751 18.5565 3.0869 16.2344C3.7669 13.9768 4.78029 11.8212 6.09739 9.85718C6.7551 8.87642 7.45338 7.98204 8.21254 7.16608C8.57226 6.77951 8.94527 6.40505 9.33113 6.04382C9.54171 5.84665 9.75605 5.65355 9.97413 5.46452C10.0832 5.37 10.1932 5.27641 10.3041 5.18402C10.3593 5.13797 10.4151 5.09247 10.4707 5.04697C10.4604 5.05594 10.4974 5.02681 10.5837 4.95828C11.0703 4.58724 11.5616 4.22694 12.0845 3.9064C12.08 3.90917 12.3534 3.75075 12.3564 3.74585C12.4727 3.68333 12.5903 3.62313 12.709 3.56542C12.8509 3.49652 12.9943 3.43077 13.1395 3.36899C13.2107 3.33866 13.2826 3.31027 13.3545 3.28187C13.3716 3.27679 13.4172 3.26144 13.4949 3.2348C13.6431 3.193 13.7912 3.15111 13.9395 3.10958C13.9941 3.09432 14.0313 3.08313 14.0558 3.07499C14.0812 3.07287 14.1185 3.06871 14.172 3.06177C14.4468 3.02626 14.6985 3.00665 14.8828 3.01756C15.1372 3.03264 15.3852 3.06834 15.6275 3.1413C15.7491 3.17793 15.8691 3.22232 15.9859 3.27198C16.0294 3.29048 16.289 3.42661 16.2642 3.40839C17.1345 3.94302 17.6913 4.80448 17.9265 5.80355C18.0164 6.1855 18.0415 6.771 17.9751 7.2286C17.9373 7.48902 17.8212 7.79856 17.6883 8.05667C17.6306 8.15313 17.5725 8.24931 17.5172 8.34697C17.2051 8.89779 17.383 9.43279 18.0672 9.5114C18.7782 9.59306 19.6324 9.18929 20.033 8.60647C20.1385 8.45286 20.2327 8.29444 20.3178 8.13297C20.4882 7.85987 20.6666 7.59177 20.8564 7.33097C20.9918 7.14499 21.1319 6.96234 21.2764 6.78321C21.4562 6.56023 21.5149 6.49282 21.7807 6.21149C22.0971 5.87662 22.4294 5.55645 22.7762 5.25227C22.8804 5.1609 22.9863 5.07185 23.0924 4.98269C23.1152 4.96346 23.1339 4.94764 23.1493 4.93451C23.1684 4.92064 23.1942 4.90168 23.2282 4.87634C23.4506 4.71052 23.6721 4.54461 23.9012 4.38767C24.0919 4.2569 24.2857 4.13057 24.4823 4.0085C24.6003 3.93516 24.7203 3.86534 24.8392 3.79357C24.8621 3.7797 24.881 3.76814 24.8971 3.75824C24.9144 3.74946 24.9353 3.73882 24.9604 3.72588C25.4136 3.49227 25.8686 3.26671 26.3402 3.07083C26.4685 3.01747 26.5981 2.96744 26.7272 2.91611C26.7489 2.90751 26.7669 2.9003 26.7829 2.89382C26.8023 2.88781 26.8259 2.88041 26.855 2.87117C27.0754 2.8006 27.2942 2.72606 27.5165 2.66105C27.7385 2.59613 27.9621 2.53629 28.1868 2.48154C28.3217 2.44871 28.4571 2.41782 28.5928 2.38888C28.6515 2.3763 28.7104 2.36474 28.7692 2.3529C28.7808 2.35096 28.7977 2.34809 28.8216 2.34384C29.8997 2.16766 30.7808 2.11023 31.7149 2.17007C32.7313 2.23517 33.5972 2.38915 34.4857 2.65226C36.4336 3.22897 38.1712 4.17589 39.7173 5.46924C40.5327 6.15128 41.2991 6.91906 41.9343 7.76942C42.0019 7.85996 42.0672 7.9518 42.1323 8.04372C40.7194 7.50687 39.2937 6.86699 37.8102 6.56911C37.2947 6.46563 36.6102 6.79652 36.2528 7.1462C36.0224 7.37166 35.6494 7.99452 36.0747 8.2383C37.4056 9.00146 38.9814 9.40079 40.4278 9.90694C41.9084 10.425 43.4005 10.9081 44.8964 11.3767C45.327 11.5116 45.8039 11.3953 46.1838 11.1763C46.4892 11.0003 46.9285 10.6592 46.9025 10.2569C46.8157 8.91203 46.7402 7.56606 46.6421 6.22194C46.5934 5.55543 46.507 4.89012 46.4359 4.22546C46.3766 3.67261 46.4086 2.80911 45.8946 2.4686C45.5281 2.22583 44.9891 2.47451 44.7547 2.79126C44.3301 3.36501 44.3931 4.10875 44.3901 4.78959C44.3887 5.09968 44.3843 5.41023 44.3816 5.72069C43.8561 5.09432 43.2804 4.51724 42.7074 4.00387C41.0399 2.50975 39.0141 1.35364 36.8637 0.690001C32.1629 -0.760657 27.0835 0.148801 22.9637 2.73596C22.1523 3.24544 21.3807 3.82733 20.6644 4.47053C20.4415 3.70701 20.0399 2.98778 19.472 2.38592C17.2892 0.072412 13.6432 0.985478 11.2137 2.34846C8.73843 3.73716 6.61842 5.82621 4.89748 8.04594C3.26825 10.1475 1.98928 12.5287 1.1415 15.0391C0.207446 17.8048 -0.307387 20.8944 0.198188 23.7901C0.344418 24.627 1.84605 23.9699 1.89654 23.3218Z" fill="#7B7B7B"/>
</svg>
